<svg xmlns="http://www.w3.org/2000/svg" xmlns:xlink="http://www.w3.org/1999/xlink" version="1.1" id="Layer_1" x="0px" y="0px" viewBox="0 0 41.9 40" enable-background="new 0 0 41.9 40" xml:space="preserve"><path fill="#086FB8" d="M37.1 1.1c-4.1 0-8.9 3.4-8.9 3.4s13.5 2.2 12.4 17.7H18.4c0 0-0.3 6 5.4 6c4.2 0 5-3.8 5-3.8h11.7 c0 0-3.1 11.6-16.3 11.6c-3.1 0-4.3-0.2-4.3-0.2S14.6 40 9.3 40c-5.3 0-5.8-5.7-5-8.3S8 16.6 20.5 8.1V7.5c0 0-8.5 3.5-14.6 12.3 c0 0-0.2-8.5 7.2-13.3c6.9-4.2 13.8-2.3 13.8-2.3S32.7 0 37.3 0c0 0 7.2-0.7 3.5 8.9l-0.2-0.2C40.6 8.7 43.7 1.1 37.1 1.1z M18.3 16.9H29c0 0 0.2-5.2-5.2-5.2C18.2 11.7 18.3 16.9 18.3 16.9z M7.6 37.1c3.6 3.4 11.7-1.5 11.7-1.5 c-7.8-1.7-10.4-6.7-10.4-6.7S5.7 33.7 7.6 37.1z"/></svg>